<svg id="Calque_1" data-name="Calque 1" xmlns="http://www.w3.org/2000/svg" viewBox="0 0 74.47 35.25">
  <title>icon-bird</title>
  <path d="M2.91,35.25l5.33-3.64,21.67-1.05-20-.16,4.77-3.31,16.09-.73L16.17,26l5.74-4,16.25-.48c-8.73-.41-10.67-.65-14.63-.65C17.7,20.94,0,22.39,0,22.39V18.68l9-.81-9-.48V14.71l8.16-.57L0,13.66V10.51c10.1.73,20.21,1.62,30.4,1.62l-11.08-.89-3.8-2.34,12.37-.81L13.66,7.76,8.89,4.61,22.55,3.8,6.63,3.23,1.54,0H42.84C47,0,55.21,1.21,55.21,7.52a18.11,18.11,0,0,1-.57,4.29c-.16.89.49,1.94,1.46,1.37.65-.4,4.45-2.67,8.16-2.67,4.77,0,5.66,4.2,10,5.5.24.08.24.32,0,.4-5.82,2.91-8.89,4.77-11.56,4.77-1.7,0-6.14-.32-6.14-.32a2.73,2.73,0,0,0-2.75,2.75v3.23a8.28,8.28,0,0,1-8.33,8.41ZM18.11,13v-.08L7,12.21c-1.62-.08-3.64-.4-6.14-.4v.89L7,12.93ZM.81,16.41c2.34,0,5.74.08,8.65,0l15.12-.32V16L9.46,15.6H.81Zm0,4.29c1.54,0,3.64-.08,11.32-.73l6-.48V19.4L12,19.56c-7.84.24-9.78.16-11.24.32ZM6.71,2.18c1.37,0,3.23,0,11.8-.16l7-.16V1.78l-7-.16C9.38,1.38,7,1.38,5.33,1.38Zm-.4,31.69c3.15,0,8.65-.24,16.9-.49l7.44-.24v-.08l-23.12.08ZM13.42,6.55c1.13-.08,2.59,0,10.43-.49l6.47-.4H12ZM13,29.27c2.18,0,3.56.16,12-.32l5.66-.32v-.08H25c-7,0-9.06-.16-10.83-.08ZM33.47,10.51v-.08l-5.09-.24c-6.63-.32-8.73-.48-9.94-.48l1.13.57a71.84,71.84,0,0,0,8.81.24ZM20,24.41c1.46,0,3.31-.08,10-.4l5.25-.24v-.08H30.07c-6.63,0-7.84-.16-8.89-.16Zm17.38-9.3S35.81,15,33.71,15a17,17,0,0,0-3.72.4,27.89,27.89,0,0,0,3.72.24,14.32,14.32,0,0,0,3.72-.49M50.28,2.75C46.73,1.05,39.13,1.13,34,1.86c5-.16,12.53-.32,16.17,1.37,3.23,1.46,3.64,5.5,2.34,8.08,2-2.91,1.13-7.19-2.26-8.57M42,18.84a29.92,29.92,0,0,0-3.8-.24,23.45,23.45,0,0,0-3.72.32,24.3,24.3,0,0,0,3.88.32,17.66,17.66,0,0,0,3.64-.4m5.66-9.22A21.07,21.07,0,0,0,43.9,9.3a18,18,0,0,0-3.72.4,29.39,29.39,0,0,0,3.72.24,21,21,0,0,0,3.72-.32m.49,19.24a21,21,0,0,0-3.72-.32,18,18,0,0,0-3.72.4,22.18,22.18,0,0,0,3.72.32,17,17,0,0,0,3.72-.4m1.54-13.42a23.42,23.42,0,0,0-3.48-.4,26.5,26.5,0,0,0-3.48.08,14.89,14.89,0,0,0,3.48.57,15.59,15.59,0,0,0,3.48-.24M48.18,4a11.61,11.61,0,0,0-2.51-.4,24.42,24.42,0,0,0-2.67,0,7,7,0,0,0,2.67.57A21.47,21.47,0,0,0,48.18,4m.57,20a9.2,9.2,0,0,0-2.59-.24,21.18,21.18,0,0,0-2.59.32,7.73,7.73,0,0,0,2.59.32,14.68,14.68,0,0,0,2.59-.4m-2.59,8a17.41,17.41,0,0,0,2.59-.48,23.19,23.19,0,0,0-2.59,0,8.35,8.35,0,0,0-2.51.57A14.84,14.84,0,0,0,46.16,32m4.2-5.9a23.19,23.19,0,0,0-2.59,0,11.32,11.32,0,0,0-2.59.49,16,16,0,0,0,2.59.08,8.47,8.47,0,0,0,2.59-.57m.4-4.85a11.26,11.26,0,0,0-2.67-.16,11.53,11.53,0,0,0-2.51.4s1.13.08,2.51.08a10.7,10.7,0,0,0,2.67-.32m.08-8.89a12.3,12.3,0,0,0-2.51-.24,15.16,15.16,0,0,0-2.67.24,11.56,11.56,0,0,0,2.67.32,9.41,9.41,0,0,0,2.51-.32M51.09,7a9.22,9.22,0,0,0-2.59-.4,10.45,10.45,0,0,0-2.59.32,10.45,10.45,0,0,0,2.59.32A14.82,14.82,0,0,0,51.09,7m2.59,11.72A11.81,11.81,0,0,0,51,18.51a21.14,21.14,0,0,0-2.51.32,9.2,9.2,0,0,0,2.59.24,13.13,13.13,0,0,0,2.59-.4m-1.62,7.44c-.08,2.43-.49,4.37-1.7,5.58,1.78-.89,2.18-3.48,1.7-5.58M67.5,15.28a5,5,0,0,0-5.17,0,5,5,0,0,0,5.17,0"/>
</svg>
