<?xml version="1.0" encoding="utf-8"?>
<!-- Generator: Adobe Illustrator 21.0.0, SVG Export Plug-In . SVG Version: 6.00 Build 0)  -->
<svg version="1.1" id="Calque_1" xmlns="http://www.w3.org/2000/svg" xmlns:xlink="http://www.w3.org/1999/xlink" x="0px" y="0px"
	 viewBox="0 0 545.7 79.9" style="enable-background:new 0 0 545.7 79.9;" xml:space="preserve">
<path d="M0,6.4h7.5C7.1,7.6,7.1,10,7.8,12.1l15,40.6C32.1,34.4,35,16.5,34.3,6.4h8C40,9.6,39,15.5,37,20.9
	c-3.7,10.1-11.3,27.8-14.2,34v5.8h-2.7L0,6.4z"/>
<path d="M43.4,25.4l8.2-4.1v25.8c0,7.1,1.6,11.8,3.6,13.6h-8.7L47,37.3c0.1-5.8-1.2-9.7-3.6-11.6V25.4z M48.1,8.3c2.3,0,4,1.9,4,4.1
	c0,2.3-1.7,4-4,4c-2.3,0-4.1-1.8-4.1-4C44,10.2,45.9,8.3,48.1,8.3"/>
<path d="M76,21.3c10.8,0,19.9,9.1,19.9,20.3c0,11.2-8.8,19.7-19.2,19.7c-10.8,0-19.9-9.2-19.9-20.3C56.7,29.8,65.5,21.3,76,21.3
	 M79.1,60.1C87,60.1,91,52.5,91,44.8c0-10.2-7.8-22.3-17.4-22.3c-7.9,0-11.9,7.5-11.9,15.3C61.7,48.3,69.5,60.1,79.1,60.1"/>
<path d="M97.6,10.5l8.2-4.1v40.7c0,7.1,1.6,11.8,3.6,13.6h-8.7l0.5-38.3c0.1-5.8-1.2-9.7-3.6-11.6V10.5z"/>
<path d="M126.5,28c-3.5,2.5-10.6,8.9-10.6,17.5c0,7.6,3.9,12.6,11.2,12.7c3.6,0.1,7.6-1.4,9.9-4.9c-3.6-10.5-8.2-24.1-10-27.2
	c-1.9-3.3-5.7-3.7-9.2-2.7l-0.2-0.1c1.7-1.3,4.6-2.1,6.8-2.1c2.4,0,5.9,0.9,8.1,5.9c1.6,3.5,9.4,25,9.6,25.6
	c1.8,4.5,2.9,6.7,4.5,7.9h-7.2l-2.3-6.8c-2.9,4.7-6.4,7.3-12.9,7.4c-7.8,0-13.7-5.3-13.7-13.1C110.7,39.6,116.6,32.5,126.5,28"/>
<path d="M145.9,25.4l8.2-4.1v25.8c0,7.1,1.6,11.8,3.6,13.6h-8.7l0.5-23.4c0.1-5.8-1.2-9.7-3.6-11.6V25.4z M150.6,8.3
	c2.3,0,4,1.9,4,4.1c0,2.3-1.7,4-4,4c-2.3,0-4.1-1.8-4.1-4C146.5,10.2,148.4,8.3,150.6,8.3"/>
<path d="M159,25.4l8.2-4.1v5.9c3.1-3.9,6.7-5.9,10.8-5.9c7,0,9.7,4,11.7,15.2l2.2,12.1c1.3,7.5,3.6,10.6,5.6,12.1h-8.6L185,37.6
	c-1.5-8.8-4-13.7-9.2-13.7c-3.8,0.1-6.2,1.9-8.5,4.2v19c0,7.1,1.6,11.8,3.6,13.6h-8.7l0.5-23.4c0.1-5.8-1.2-9.7-3.6-11.6V25.4z"/>
<path d="M234.5,42.1c-0.2,10.4-8.9,19.2-19.6,19.2c-10.8,0-19.6-8.5-19.6-19.8c0-11.7,9.1-20.3,20.1-20.3c8.9,0,15.1,6.1,15.1,14.8
	h-30c-0.2,1.2-0.3,2.5-0.3,3.9c0,9.7,7.4,16.4,16.1,16.4C226.4,56.3,233.1,50.1,234.5,42.1L234.5,42.1z M200.8,35.3h12.7
	c8.5,0,10.8-3.3,10.8-6.5c0-4.1-4.3-6.7-9.5-6.7C208.2,22.1,202.3,27.1,200.8,35.3"/>
<path d="M282.4,5.7c10.6,0,14.7,4.3,14.7,8.2c0,4.5-5.6,9.2-10.6,13c-6.7,5-10.7,8.2-13.8,14.1c0.9-1.2,2.3-2.4,4-3.4
	c10.1-6.4,29.3-8.1,43.1-19.1v7.5l-14.3,3.4c0.5,3.3,0.6,5.7,0.6,7.8c0,13.9-10,23.4-24.1,24c-15.4,0.5-28.1-12.3-28.1-27.5
	C253.9,18,267.2,5.7,282.4,5.7 M271.7,54.2c-2.3-4.4-1.7-8.9,0.4-13.2c2.6-5.4,7.4-10.6,12.7-15.4c3.6-3.3,6.8-7.5,6.8-11.3
	c0-2.3-1.4-7.1-12.1-7.1c-12.6,0-20.7,9.9-20.7,23.4C258.8,39.8,264.1,49,271.7,54.2 M274.2,55.7c2.2,1.3,5.9,2.9,11.1,2.9
	c10.9,0,19.8-9.2,19.8-19.7c0-2.9-0.6-6.2-2.6-8.7c-1.7,0.5-9.8,2.3-12,2.9c-7.6,2-17.4,5.4-19.1,11.9
	C270.3,49.1,271.6,53.9,274.2,55.7"/>
<path d="M338.7,68c0,0,5.5-3.3,5.5-18.9V22.4c0-8.1-1.6-13.4-3.6-16.1h12c-2,2.6-3.6,7.9-3.6,16.1V49c0,16.4-10.2,19.1-10.2,19.1
	L338.7,68z"/>
<path d="M393.4,42.1c-0.2,10.4-8.9,19.2-19.6,19.2c-10.8,0-19.6-8.5-19.6-19.8c0-11.7,9.1-20.3,20.1-20.3c8.9,0,15.1,6.1,15.1,14.8
	h-30c-0.2,1.2-0.3,2.5-0.3,3.9c0,9.7,7.4,16.4,16.1,16.4C385.2,56.3,392,50.1,393.4,42.1L393.4,42.1z M359.6,35.3h12.7
	c8.5,0,10.8-3.3,10.8-6.5c0-4.1-4.3-6.7-9.5-6.7C367.1,22.1,361.2,27.1,359.6,35.3 M362.7,18.8l-0.2-0.2c3.7-3.1,8.1-6.9,10.5-9
	c3.4-2.9,7.8-6.8,10.6-9.5l2.4,4.3c-2.3,1-7.4,4.1-12,6.9C371.6,12.7,366.6,15.8,362.7,18.8"/>
<path d="M394.1,25.4l8.2-4.1V36c1.5-9.2,7.1-13.6,15.8-14.7l-1.3,6.3c-7.1-1-14.2,4-14.4,10.9v8.6c0,7.1,1.6,11.8,3.6,13.6h-8.7
	l0.5-23.4c0.1-5.8-1.2-9.7-3.6-11.6V25.4z"/>
<path d="M457.2,42.1c-0.2,10.4-8.9,19.2-19.6,19.2c-10.8,0-19.6-8.5-19.6-19.8c0-11.7,9.1-20.3,20.1-20.3c8.9,0,15.1,6.1,15.1,14.8
	h-30c-0.2,1.2-0.3,2.5-0.3,3.9c0,9.7,7.4,16.4,16.1,16.4C449,56.3,455.8,50.1,457.2,42.1L457.2,42.1z M423.4,35.3h12.7
	c8.5,0,10.8-3.3,10.8-6.5c0-4.1-4.3-6.7-9.5-6.7C430.9,22.1,425,27.1,423.4,35.3 M426.5,18.8l-0.2-0.2c3.7-3.1,8.1-6.9,10.5-9
	c3.4-2.9,7.8-6.8,10.6-9.5l2.4,4.3c-2.3,1-7.4,4.1-12,6.9C435.4,12.7,430.4,15.8,426.5,18.8"/>
<path d="M457.9,25.4l8.1-4.1v6.6c3.2-4,7.9-6.6,12.2-6.6c5,0,7.6,2.6,8.9,6.6c2.9-3.7,6.4-6.6,11.3-6.6c7,0,9.8,4.5,11.7,15.2
	l2.2,12.1c1.3,7.5,3.6,10.6,5.6,12.1h-8.6l-3.9-23.1c-1.6-9.3-3.9-13.7-9.2-13.7c-3.6,0-6.2,2-8.8,4.7c0.6,2.3,0.9,5,0.9,7.9v10.1
	c0,7.1,1.6,12.6,3.5,14.1h-8.5l0.5-23.1c0.2-8.1-1.5-13.6-8.5-13.6c-3.6,0-6.8,1.9-9.2,4.7v18.4c0,7.1,1.6,11.8,3.6,13.6h-8.6
	l0.5-23.3c0.1-5.8-1.2-9.7-3.6-11.6V25.4z"/>
<path d="M510.4,72.6c6.3-2.1,12.6-6.1,17-13.4l-10.7-26c-3-7.3-5.2-10.5-6.3-11v-0.3h9.8v0.3c-0.2,0.2-0.6,0.9-0.6,2.4
	c0,1.3,0.3,3.2,1.3,5.6l9.2,22.8l7.7-18.4c0.9-2.2,1.2-4.5,1.2-6.6c0-2.6-0.5-4.9-0.9-5.8v-0.3h7.6v0.3c-1.7,1.6-3.6,4.3-7.8,14.4
	l-6.3,15.1c-8.1,19.6-11.6,22.6-21.1,28.2V72.6z"/>
</svg>
