<svg id="Calque_1" data-name="Calque 1" xmlns="http://www.w3.org/2000/svg" viewBox="0 0 34.07 34.07">
  <defs>
    <style>
      .cls-1 {
        fill: #40009b;
      }
    </style>
  </defs>
  <title>instagram</title>
  <g>
    <path id="_Tracé_transparent_" data-name="&lt;Tracé transparent&gt;" class="cls-1" d="M17,11.64c1.76,0,2,0,2.66,0a3.64,3.64,0,0,1,1.22.23,2.18,2.18,0,0,1,1.25,1.25,3.65,3.65,0,0,1,.23,1.22c0,.69,0,.9,0,2.66s0,2,0,2.66a3.64,3.64,0,0,1-.23,1.22,2.18,2.18,0,0,1-1.25,1.25,3.64,3.64,0,0,1-1.22.23c-.69,0-.9,0-2.66,0s-2,0-2.66,0a3.64,3.64,0,0,1-1.22-.23,2.18,2.18,0,0,1-1.25-1.25,3.65,3.65,0,0,1-.23-1.22c0-.69,0-.9,0-2.66s0-2,0-2.66a3.65,3.65,0,0,1,.23-1.22,2.18,2.18,0,0,1,1.25-1.25,3.64,3.64,0,0,1,1.22-.23c.69,0,.9,0,2.66,0m0-1.19c-1.79,0-2,0-2.72,0a4.84,4.84,0,0,0-1.6.31,3.37,3.37,0,0,0-1.93,1.93,4.83,4.83,0,0,0-.31,1.6c0,.7,0,.93,0,2.72s0,2,0,2.72a4.83,4.83,0,0,0,.31,1.6,3.37,3.37,0,0,0,1.93,1.93,4.84,4.84,0,0,0,1.6.31c.7,0,.93,0,2.72,0s2,0,2.72,0a4.84,4.84,0,0,0,1.6-.31,3.37,3.37,0,0,0,1.93-1.93,4.84,4.84,0,0,0,.31-1.6c0-.7,0-.93,0-2.72s0-2,0-2.72a4.84,4.84,0,0,0-.31-1.6,3.37,3.37,0,0,0-1.93-1.93,4.84,4.84,0,0,0-1.6-.31c-.7,0-.93,0-2.72,0" transform="translate(0)"/>
    <path id="_Tracé_transparent_2" data-name="&lt;Tracé transparent&gt;" class="cls-1" d="M17,13.65A3.38,3.38,0,1,0,20.42,17,3.38,3.38,0,0,0,17,13.65m0,5.58a2.2,2.2,0,1,1,2.2-2.2,2.2,2.2,0,0,1-2.2,2.2" transform="translate(0)"/>
    <path id="_Tracé_" data-name="&lt;Tracé&gt;" class="cls-1" d="M21.34,13.52a.79.79,0,1,1-.79-.79.79.79,0,0,1,.79.79" transform="translate(0)"/>
  </g>
  <path class="cls-1" d="M17,34.07a17,17,0,1,1,17-17A17.05,17.05,0,0,1,17,34.07ZM17,.92A16.11,16.11,0,1,0,33.15,17,16.13,16.13,0,0,0,17,.92Z" transform="translate(0)"/>
</svg>
