<svg id="Calque_1" data-name="Calque 1" xmlns="http://www.w3.org/2000/svg" viewBox="0 0 34.07 34.07">
  <defs>
    <style>
      .cls-1 {
        fill: #40009b;
      }
    </style>
  </defs>
  <title>twitter</title>
  <path id="_Tracé_" data-name="&lt;Tracé&gt;" class="cls-1" d="M8,22.69a10.51,10.51,0,0,0,16.16-9.33A7.49,7.49,0,0,0,26,11.45a7.38,7.38,0,0,1-2.12.58,3.7,3.7,0,0,0,1.62-2,7.4,7.4,0,0,1-2.35.9,3.7,3.7,0,0,0-6.29,3.37,10.48,10.48,0,0,1-7.61-3.86,3.7,3.7,0,0,0,1.14,4.93,3.68,3.68,0,0,1-1.67-.46,3.7,3.7,0,0,0,3,3.67,3.7,3.7,0,0,1-1.67.06,3.7,3.7,0,0,0,3.45,2.57A7.42,7.42,0,0,1,8,22.69Z" transform="translate(0)"/>
  <path class="cls-1" d="M17,34.07a17,17,0,1,1,17-17A17.05,17.05,0,0,1,17,34.07ZM17,.92A16.11,16.11,0,1,0,33.15,17,16.13,16.13,0,0,0,17,.92Z" transform="translate(0)"/>
</svg>
