<svg id="Calque_1" data-name="Calque 1" xmlns="http://www.w3.org/2000/svg" viewBox="0 0 34.07 34.07">
  <defs>
    <style>
      .cls-1 {
        fill: #40009b;
      }
    </style>
  </defs>
  <title>behance</title>
  <path id="Behance" class="cls-1" d="M23.73,12.55H19.47V11.49h4.26v1.06Zm-7.1,4.34A2.8,2.8,0,0,1,17,18.44a3.09,3.09,0,0,1-.47,1.69,2.93,2.93,0,0,1-.75.83,2.89,2.89,0,0,1-1.19.53,7.39,7.39,0,0,1-1.49.14H8.37V11.05h5.11a3.25,3.25,0,0,1,2.74,1.13,2.69,2.69,0,0,1,.48,1.62,2.36,2.36,0,0,1-.49,1.56,2.5,2.5,0,0,1-.81.6A2.35,2.35,0,0,1,16.63,16.89Zm-5.82-1.67h2.24A2.12,2.12,0,0,0,14.17,15,1,1,0,0,0,14.6,14a1,1,0,0,0-.57-1,4,4,0,0,0-1.25-.17h-2Zm4,3.07a1.14,1.14,0,0,0-.67-1.13A2.65,2.65,0,0,0,13.08,17H10.81V19.8H13a2.49,2.49,0,0,0,1.07-.19A1.33,1.33,0,0,0,14.81,18.29Zm10.5-1.72a10,10,0,0,1,.07,1.51H19.86a1.81,1.81,0,0,0,.79,1.6,2,2,0,0,0,1.09.28,1.54,1.54,0,0,0,1.51-.87h2a2.46,2.46,0,0,1-.73,1.37,3.68,3.68,0,0,1-2.85,1.11A4.14,4.14,0,0,1,19,20.64a3.69,3.69,0,0,1-1.16-3,4.11,4.11,0,0,1,1-3,3.66,3.66,0,0,1,2.71-1.05,4.32,4.32,0,0,1,1.78.35A3.07,3.07,0,0,1,24.71,15,3.74,3.74,0,0,1,25.31,16.57Zm-2,.2a1.66,1.66,0,0,0-.53-1.2,1.73,1.73,0,0,0-1.17-.41,1.57,1.57,0,0,0-1.18.43,2,2,0,0,0-.53,1.17h3.42Z"/>
  <path class="cls-1" d="M17,34.07a17,17,0,1,1,17-17A17.05,17.05,0,0,1,17,34.07ZM17,.92A16.11,16.11,0,1,0,33.15,17,16.13,16.13,0,0,0,17,.92Z"/>
</svg>
