<svg id="Calque_1" data-name="Calque 1" xmlns="http://www.w3.org/2000/svg" viewBox="0 0 34.07 34.07">
  <defs>
    <style>
      .cls-1 {
        fill: #40009b;
      }
    </style>
  </defs>
  <title>pinterest</title>
  <path id="_Tracé_" data-name="&lt;Tracé&gt;" class="cls-1" d="M12.19,18.44a.36.36,0,0,0,.52-.26l.21-.83a.5.5,0,0,0-.15-.58,3,3,0,0,1-.68-2,4.89,4.89,0,0,1,5.08-4.95c2.77,0,4.3,1.69,4.3,4,0,3-1.32,5.49-3.27,5.49a1.6,1.6,0,0,1-1.63-2,22.08,22.08,0,0,0,.91-3.67,1.38,1.38,0,0,0-1.39-1.55c-1.1,0-2,1.14-2,2.67a4,4,0,0,0,.33,1.63L13.09,22a11.57,11.57,0,0,0,0,3.92.14.14,0,0,0,.25.06,11,11,0,0,0,1.86-3.38c.13-.46.73-2.84.73-2.84A3,3,0,0,0,18.42,21C21.74,21,24,18,24,14,24,10.9,21.4,8,17.46,8c-4.91,0-7.38,3.52-7.38,6.45C10.08,16.27,10.75,17.85,12.19,18.44Z"/>
  <path class="cls-1" d="M17,34.07a17,17,0,1,1,17-17A17.05,17.05,0,0,1,17,34.07ZM17,.92A16.11,16.11,0,1,0,33.15,17,16.13,16.13,0,0,0,17,.92Z"/>
</svg>
