<svg id="Calque_1" data-name="Calque 1" xmlns="http://www.w3.org/2000/svg" viewBox="0 0 34.07 34.07">
  <defs>
    <style>
      .cls-1 {
        fill: #40009b;
      }
    </style>
  </defs>
  <title>facebook</title>
  <path class="cls-1" d="M18.34,25.48v-7.7h2.59l.39-3h-3V12.86c0-.87.24-1.46,1.49-1.46h1.59V8.71a21.3,21.3,0,0,0-2.32-.12,3.62,3.62,0,0,0-3.86,4v2.21H12.65v3h2.59v7.7h3.1Z"/>
  <path class="cls-1" d="M17,34.07a17,17,0,1,1,17-17A17.05,17.05,0,0,1,17,34.07ZM17,.92A16.11,16.11,0,1,0,33.15,17,16.13,16.13,0,0,0,17,.92Z"/>
</svg>
