<svg id="Calque_1" data-name="Calque 1" xmlns="http://www.w3.org/2000/svg" viewBox="0 0 80 80">
  <title>Sans titre - 1</title>
  <circle cx="40" cy="40" r="40" fill="#fff"/>
  <path d="M39.54,12.25c10.55,0,14.75,4.35,14.75,8.23,0,4.5-5.59,9.24-10.63,13-6.67,5-10.71,8.23-13.81,14.12a14.5,14.5,0,0,1,4-3.42c10.09-6.36,29.34-8.07,43.15-19.09v7.45L62.66,36a54.64,54.64,0,0,1,.62,7.76c0,13.89-10,23.44-24.14,24A27.51,27.51,0,0,1,11.06,40.27c0-15.75,13.27-28,28.48-28M28.83,60.75c-2.33-4.42-1.71-8.92.39-13.19,2.56-5.43,7.45-10.63,12.73-15.36,3.65-3.34,6.83-7.45,6.83-11.33,0-2.33-1.4-7.14-12.11-7.14-12.65,0-20.72,9.93-20.72,23.44,0,9.16,5.28,18.39,12.88,23.59m2.48,1.47a21.54,21.54,0,0,0,11.1,2.87A20,20,0,0,0,62.2,45.39a13.83,13.83,0,0,0-2.64-8.69c-1.71.47-9.78,2.33-12,2.95-7.61,2-17.38,5.43-19.09,11.87-1.09,4.11.23,8.92,2.79,10.71"/>
</svg>
